<svg xmlns="http://www.w3.org/2000/svg" viewBox="0 0 245.32 331.86"><defs><style>.cls-1{fill:#27224e;}.cls-2{fill:#45e432;}</style></defs><title>Recurso 1</title><g id="Capa_2" data-name="Capa 2"><g id="Capa_1-2" data-name="Capa 1"><path class="cls-1" d="M28.49,264.39h24a43.53,43.53,0,0,1,13.34,2,28.88,28.88,0,0,1,10.63,6,27.42,27.42,0,0,1,7,10.37A40,40,0,0,1,86,297.68,36.29,36.29,0,0,1,83.42,312a28.09,28.09,0,0,1-17.75,16.3,42.45,42.45,0,0,1-13.3,2H28.49Zm23.32,50.48q8.14,0,12.6-4.89t4.45-12.7a23.58,23.58,0,0,0-1-7.16,15,15,0,0,0-3.14-5.53A14.27,14.27,0,0,0,59.4,281a20.44,20.44,0,0,0-7.59-1.28H45.07v35.17Z"/><path class="cls-1" d="M130.24,325.58a0,0,0,0,0-.07,0,31.3,31.3,0,0,1-4.78,3.13,36.16,36.16,0,0,1-4.41,1.93,19.42,19.42,0,0,1-4.16,1,34.41,34.41,0,0,1-4.22.25,25,25,0,0,1-8-1.28,19.39,19.39,0,0,1-6.65-3.81,17.84,17.84,0,0,1-4.5-6.17,20.41,20.41,0,0,1-1.63-8.4,22.75,22.75,0,0,1,3-11.41,23.84,23.84,0,0,1,8.76-8.71.06.06,0,0,0,0-.08,18.56,18.56,0,0,1-2.64-6.08,25.64,25.64,0,0,1-.52-4.94,17.17,17.17,0,0,1,1.5-7.16,18,18,0,0,1,4.22-5.83A19.79,19.79,0,0,1,112.6,264a23,23,0,0,1,8.24-1.43,20.29,20.29,0,0,1,10.82,3,26.92,26.92,0,0,1,4.57,4.17c6,6-3.1,16.12-10.84,8.38h0a5.23,5.23,0,0,0-4-1.63,5.41,5.41,0,0,0-3.8,1.43,4.94,4.94,0,0,0-1.54,3.8A6.12,6.12,0,0,0,117,285a27.86,27.86,0,0,0,2,2.81l13.26,16.35a0,0,0,0,0,.08,0q1.86-1.95,3.94-4.4t4.51-5.29a.06.06,0,0,1,.08,0l10.31,9.9a.05.05,0,0,1,0,.08c-1.8,2.09-3.52,4-5.17,5.83s-3.17,3.45-4.6,5a0,0,0,0,0,0,.07l12.07,14.89a.06.06,0,0,1,0,.09H134.08l-.05,0Zm-18.45-23a.06.06,0,0,0-.08,0,10.53,10.53,0,0,0-3.47,3.72,9.45,9.45,0,0,0-1.07,4.35q0,5.1,5.71,6.46a4.75,4.75,0,0,0,1.06.15,11.07,11.07,0,0,0,3.86-.53,14.61,14.61,0,0,0,3.65-2,.06.06,0,0,0,0-.09Z"/><path class="cls-1" d="M159.43,264.39h24a43.55,43.55,0,0,1,13.35,2,28.88,28.88,0,0,1,10.63,6,27.42,27.42,0,0,1,7,10.37A40.21,40.21,0,0,1,217,297.68,36.29,36.29,0,0,1,214.37,312a28.09,28.09,0,0,1-17.75,16.3,42.5,42.5,0,0,1-13.3,2H159.43Zm23.33,50.48q8.15,0,12.6-4.89t4.45-12.7a23.58,23.58,0,0,0-1-7.16,15,15,0,0,0-3.14-5.53,14.23,14.23,0,0,0-5.3-3.61,20.35,20.35,0,0,0-7.58-1.28H176v35.17Z"/><path class="cls-1" d="M245.32,120.59A120.67,120.67,0,0,1,80.59,232.83l0,0A26.68,26.68,0,0,1,99,182.71h0l1.48.6h0a67.26,67.26,0,1,0,33-129.44,68.09,68.09,0,0,0-8.73-.56,67,67,0,0,0-17.45,2.31.38.38,0,0,0-.16,0,7,7,0,0,0-1.23.34h0a8.81,8.81,0,0,0,3,17.09,15.49,15.49,0,0,0,2-.25l.75-.21a49.67,49.67,0,1,1,13,97.6c-1.23,0-2.45-.06-3.66-.15l-.45,0a8.92,8.92,0,0,1,.92-17.79H122a5.07,5.07,0,0,0,.56.05h0q1,.06,2.13.06a31.83,31.83,0,1,0-9-62.38l0,0a26.84,26.84,0,0,1-6.87.89,26.68,26.68,0,0,1-8.26-52c.66-.2,1.34-.39,2-.57a85.2,85.2,0,1,1,22.11,167.49c-2.82,0-5.62-.14-8.37-.41a85,85,0,0,1-22.47-5.32l-1.39-.59a8.76,8.76,0,0,0-6,16.43l0,0A102.71,102.71,0,1,0,90.77,23.62h0a.32.32,0,0,1-.09,0l-1.26.47h0a9.18,9.18,0,0,1-2.3.3A8.94,8.94,0,0,1,83.42,7.31l0,0A120.67,120.67,0,0,1,245.32,120.59Z"/><path class="cls-2" d="M48.72,196.05A9.37,9.37,0,0,1,33.07,203l-.06-.06-.09-.08C29.55,199.92,0,172.72,0,121.65c0-22.17,5.45-43,15.78-60.32C24.38,46.93,33,40.38,33,40.32a12.08,12.08,0,0,1,6.06-2.09,9.38,9.38,0,0,1,9.37,9.36,9.26,9.26,0,0,1-2,5.74A97.59,97.59,0,0,0,18.78,118c-.05,1.22-.07,2.44-.07,3.66a97.44,97.44,0,0,0,27.2,67.7,4.83,4.83,0,0,1,.38.4A9.32,9.32,0,0,1,48.72,196.05Z"/><path class="cls-2" d="M74.81,166.35a9.38,9.38,0,0,1-9.37,9.37,9.26,9.26,0,0,1-6.75-2.88l-.06-.05-.06-.06-.07-.08-.46-.56L58,172l-.06-.09A78,78,0,0,1,48,86.13,82.28,82.28,0,0,1,56.39,73.2a9.29,9.29,0,0,1,6.83-3,10,10,0,0,1,1.09.06,9.41,9.41,0,0,1,8.19,8,9.29,9.29,0,0,1-2.19,7.37c-.12.14-12.05,16-12.05,35.92s5,27.11,13,37a17,17,0,0,1,2.27,3.51A10.77,10.77,0,0,1,74.81,166.35Z"/><path class="cls-2" d="M99.63,134.3c2.51,5.52-1.11,12.07-7.16,12.48-.21,0-.42,0-.64,0a9.38,9.38,0,0,1-7.09-3.25c-.18-.3-5.64-7.74-6.56-20a34.88,34.88,0,0,1,3.36-18.16c1.69-4,5.54-7.14,9.43-7.14l.64,0c6,.41,9.63,6.92,7.18,12.43-1.23,2.75-2.71,6.93-2.59,10.84C96.34,126.21,98.22,131.18,99.63,134.3Z"/></g></g></svg>