<svg xmlns="http://www.w3.org/2000/svg" viewBox="0 0 323.96 318.47"><defs><style>.cls-1{fill:#27224e;}.cls-2{fill:#45e432;}</style></defs><title>Recurso 2</title><g id="Capa_2" data-name="Capa 2"><g id="Capa_1-2" data-name="Capa 1"><path class="cls-1" d="M324,159.24A159.34,159.34,0,0,1,106.42,307.46l0,0a35.23,35.23,0,0,1-23-33.05,36.08,36.08,0,0,1,.54-6.19,35.25,35.25,0,0,1,46.76-26.9h0c.64.27,1.29.53,2,.79l.06,0a88.82,88.82,0,1,0,9-168.63l-.21,0a9.71,9.71,0,0,0-1.62.46h0a11.63,11.63,0,0,0,4,22.56,21.6,21.6,0,0,0,2.7-.32l1-.28a65.59,65.59,0,1,1,17.24,128.88c-1.62,0-3.24-.07-4.83-.2l-.6,0a11.78,11.78,0,0,1,1.21-23.49,4.87,4.87,0,0,1,.54,0h.07c.24,0,.49,0,.74.06h0q1.4.09,2.82.09a42,42,0,1,0-11.85-82.38l0,0A35.23,35.23,0,0,1,109,90.12a35.65,35.65,0,0,1-.4-5.3,35.24,35.24,0,0,1,24.3-33.5c.88-.27,1.77-.52,2.66-.75a112.51,112.51,0,1,1,29.2,221.17q-5.59,0-11.06-.54a112.29,112.29,0,0,1-29.67-7l-1.84-.78a11.57,11.57,0,0,0-8,21.7l0,0a135.11,135.11,0,0,0,33.77,8.7A135.63,135.63,0,1,0,119.87,31.19l-.05,0-.12,0-1.67.61h0a12.1,12.1,0,0,1-3,.39,11.81,11.81,0,0,1-4.8-22.61l0-.05A159.35,159.35,0,0,1,324,159.24Z"/><path class="cls-2" d="M64.34,258.89a12.37,12.37,0,0,1-20.67,9.17l-.08-.08-.12-.1C39,264,0,228.08,0,160.64,0,131.37,7.2,103.83,20.84,81,32.19,62,43.52,53.33,43.62,53.25a15.91,15.91,0,0,1,8-2.77,12.36,12.36,0,0,1,9.77,20A128.8,128.8,0,0,0,24.8,155.82c-.06,1.6-.09,3.21-.09,4.82a128.66,128.66,0,0,0,35.92,89.41c.17.16.34.34.5.52A12.34,12.34,0,0,1,64.34,258.89Z"/><path class="cls-2" d="M98.79,219.68a12.39,12.39,0,0,1-12.37,12.37,12.26,12.26,0,0,1-8.92-3.8l-.08-.07-.07-.08-.1-.11-.61-.73-.07-.09-.09-.11A103,103,0,0,1,63.42,113.74a109.71,109.71,0,0,1,11-17.08,12.28,12.28,0,0,1,9-3.89,11.75,11.75,0,0,1,1.45.08,12.43,12.43,0,0,1,10.81,10.63,12.29,12.29,0,0,1-2.89,9.73c-.16.19-15.91,21.1-15.91,47.43s6.53,35.8,17.18,48.89a22.85,22.85,0,0,1,3,4.64A14.1,14.1,0,0,1,98.79,219.68Z"/><path class="cls-2" d="M131.57,177.35c3.31,7.29-1.47,15.94-9.45,16.48-.28,0-.57,0-.85,0a12.36,12.36,0,0,1-9.37-4.3c-.24-.38-7.44-10.22-8.66-26.42-.95-12.62,2.86-20.21,4.43-24,2.24-5.35,7.33-9.43,12.46-9.43.28,0,.57,0,.85,0,8,.54,12.72,9.13,9.47,16.42-1.61,3.62-3.57,9.14-3.41,14.31C127.22,166.66,129.71,173.24,131.57,177.35Z"/></g></g></svg>